# xmcd
#
# Track frame offsets: 
#        150
#        12249
#        30092
#        40655
#        50800
#        71172
#        90343
#        100047
#        111110
#        124654
#        136219
#        149750
#        160627
#        169961
#        182202
#        194654
#        210780
#        221806
#        235343
#        247735
#        259522
#        269751
#        283562
#
# Disc length: 3950 seconds
#
# Revision: 0
# Processed by: cddbd v1.5.2PL0 Copyright (c) Steve Scherf et al.
# Submitted via: ExactAudioCopy v1.1
#
DISCID=4a0f6c17
DTITLE=Various Artists  - Al-Time Country Favourites 1970-1974 Disc 2
DYEAR=2010
DGENRE=Country
TTITLE0=Marie Osmond - Paper roses
TTITLE1=Billy Swan - I can help
TTITLE2=Elvis Presley - I've got a thing about you, Baby
TTITLE3=Crystal Gayle - Wrong road again
TTITLE4=Kris Kristofferson    - Sunday morning coming down
TTITLE5=Bobbie Gentry - Fancy
TTITLE6=Johnny Rodriguez - Ridin' my thumb to Mexico
TTITLE7=Ferlin Husky - Heavenly sunshine
TTITLE8=Dave Dudley - The pool shark
TTITLE9=Moe Bandy and Joe Stampley - Roll on big mama
TTITLE10=Johnny Cash and June Carter - If I were a carpenter
TTITLE11=Tanya Tucker - Would you lay with me ( in a field of stone )
TTITLE12=Dottie West - Country sunshine
TTITLE13=Bill Anderson - World of make believe
TTITLE14=Billie Jo Spears - Marty Gray
TTITLE15=Marty Robins - My woman, my woman, my wife
TTITLE16=Connie Smith - Just for what I am
TTITLE17=Don Williams - I wouldn't want to live if you didn't love me
TTITLE18=Ronnie Milsap - Please don't tell me how the story ends
TTITLE19=Don Gibson - Is this the best I'm gonna feel
TTITLE20=Skeeter Davis - I can't believe that it's all over
TTITLE21=Tom T. Hall - A week in a country jail
TTITLE22=Jerry Lee Lewis - Chantilly lace
EXTD=
EXTT0=
EXTT1=
EXTT2=
EXTT3=
EXTT4=
EXTT5=
EXTT6=
EXTT7=
EXTT8=
EXTT9=
EXTT10=
EXTT11=
EXTT12=
EXTT13=
EXTT14=
EXTT15=
EXTT16=
EXTT17=
EXTT18=
EXTT19=
EXTT20=
EXTT21=
EXTT22=
PLAYORDER=
